<svg width="537" height="537" viewBox="0 0 537 537" fill="none" xmlns="http://www.w3.org/2000/svg">
<path d="M183.987 410.24C170.115 410.24 155.466 404.384 144.038 392.957C123.201 372.121 120.87 340.559 138.836 322.594C156.802 304.629 188.365 306.96 209.202 327.796C230.039 348.632 232.37 380.194 214.404 398.159C206.293 406.27 195.405 410.24 183.987 410.24ZM169.262 312.863C158.451 312.863 148.17 316.606 140.523 324.262C123.476 341.308 125.817 371.363 145.725 391.271C165.633 411.178 195.699 413.509 212.736 396.473C229.783 379.427 227.442 349.371 207.534 329.464C196.561 318.501 182.509 312.863 169.262 312.863Z" fill="#E68133"/>
<path d="M196.618 451.552C169.698 451.552 141.233 440.163 119.032 417.953C78.5999 377.522 74.0137 316.322 108.808 281.528C125.684 264.653 149.184 256.438 174.976 258.39C200.712 260.342 225.67 272.186 245.237 291.752C285.67 332.183 290.256 393.384 255.462 428.177C239.77 443.868 218.715 451.552 196.618 451.552ZM167.566 260.01C145.204 260.01 125.03 267.998 110.154 282.874C76.0983 316.928 80.6846 376.925 120.378 416.617C142.209 438.448 170.2 449.657 196.618 449.667C218.232 449.667 238.803 442.172 254.125 426.85C288.181 392.796 283.595 332.799 243.901 293.107C224.656 273.863 200.124 262.208 174.843 260.294C172.389 260.105 169.963 260.01 167.566 260.01Z" fill="#E68133"/>
<path d="M212.12 486.289C173.052 486.289 131.729 469.745 99.4841 437.5C71.0668 409.084 53.8592 372.86 51.0355 335.499C48.2023 298.091 60.1131 264.028 84.5695 239.563C135.036 189.097 223.832 195.796 282.514 254.477C341.197 313.157 347.886 401.959 297.429 452.415C274.697 475.155 244.167 486.289 212.12 486.289ZM169.888 207.11C138.211 207.11 108.041 218.111 85.5834 240.567C61.4207 264.729 49.6615 298.404 52.4568 335.386C55.2616 372.415 72.3176 408.317 100.498 436.496C158.631 494.627 246.526 501.316 296.434 451.41C346.342 401.504 339.652 313.612 281.519 255.481C249.549 223.521 208.586 207.11 169.888 207.11Z" fill="#E68133"/>
<path d="M229.451 512.412C179.875 512.412 127.428 491.405 86.5026 450.491C12.034 376.025 3.52497 263.364 67.542 199.359C131.549 135.354 244.214 143.853 318.683 218.329C393.151 292.794 401.66 405.455 337.653 469.46C308.809 498.284 270.092 512.412 229.451 512.412ZM87.1753 449.818C161.274 523.915 273.333 532.423 336.98 468.788C400.618 405.152 392.118 293.088 318.01 218.992C243.911 144.895 131.853 136.387 68.2052 200.022C4.56723 263.658 13.0763 375.722 87.1753 449.818Z" fill="#E68133"/>
<path d="M249.321 527.847C244.043 527.847 238.718 527.648 233.346 527.24C177.819 523.033 123.988 497.469 81.7553 455.238C39.5226 413.007 13.948 359.178 9.75036 303.653C5.5432 248.109 23.2246 197.53 59.535 161.221C95.8454 124.912 146.426 107.231 201.972 111.438C257.499 115.645 311.33 141.21 353.562 183.441C395.795 225.672 421.369 279.501 425.567 335.026C429.774 390.57 412.093 441.148 375.782 477.457C342.987 510.251 298.547 527.847 249.321 527.847ZM82.2574 454.736C169.177 541.643 300.622 551.62 375.28 476.965C449.938 402.309 439.97 270.859 353.05 183.952C310.941 141.844 257.262 116.347 201.906 112.158C146.568 107.961 96.1865 125.575 60.0277 161.733C23.8689 197.89 6.26334 248.28 10.4515 303.606C14.6492 358.951 40.1479 412.628 82.2574 454.736Z" fill="#E68133"/>
<path d="M268.386 537C232.152 537 197.007 529.903 163.918 515.908C131.957 502.387 103.255 483.038 78.6094 458.393C53.9634 433.748 34.6048 405.048 21.0926 373.088C7.09722 340 0 304.857 0 268.623C0 242.869 3.63866 217.4 10.8212 192.925C20.5052 167.968 34.8796 145.862 53.556 127.186C74.2222 106.521 98.9913 91.1803 127.153 81.5913C154.357 72.334 183.57 68.8092 213.996 71.1117C244.413 73.4142 274.498 81.4302 303.417 94.9325C333.36 108.908 360.735 128.191 384.775 152.239C408.824 176.287 428.097 203.651 442.083 233.593C455.586 262.512 463.602 292.595 465.905 323.011C468.207 353.427 464.682 382.648 455.425 409.852C445.845 438.022 430.504 462.78 409.828 483.446C391.152 502.122 369.045 516.496 344.106 526.17L344.087 526.179C319.611 533.361 294.141 537 268.386 537ZM196.211 71.017C142.731 71.017 91.8183 89.579 53.8876 127.518C35.2586 146.146 20.9221 168.205 11.2665 193.077C4.10294 217.495 0.464294 242.917 0.464294 268.623C0.464294 416.352 120.653 536.536 268.386 536.536C294.094 536.536 319.516 532.897 343.945 525.734C368.818 516.079 390.868 501.743 409.497 483.124C450.289 442.333 470.159 385.481 465.431 323.058C460.703 260.617 431.944 200.079 384.443 152.58C330.546 98.6846 261.469 71.017 196.211 71.017Z" fill="#E68133"/>
<path d="M268.386 537C232.152 537 197.007 529.903 163.918 515.908C131.957 502.387 103.255 483.038 78.6094 458.393C53.9634 433.748 34.6048 405.048 21.0926 373.088C7.09722 340 0 304.857 0 268.623C0 212.681 17.0371 159.08 49.273 113.599C52.561 109.799 56.0196 106.075 59.5635 102.532C81.869 80.2269 108.457 63.5504 138.599 52.9666C167.708 42.7428 198.892 38.5927 231.28 40.6393C263.667 42.686 295.619 50.8252 326.263 64.8296C357.987 79.3267 386.897 99.509 412.207 124.808C468.605 181.205 499.41 256.163 496.729 330.478C494.474 392.948 468.444 448.785 423.435 487.719L423.416 487.738C377.924 519.963 324.321 537 268.386 537ZM215.228 40.6014C155.03 40.6014 100.365 62.3945 59.8951 102.863C56.3607 106.397 52.9116 110.102 49.6426 113.883C17.473 159.26 0.464294 212.776 0.464294 268.614C0.464294 416.342 120.653 536.526 268.386 536.526C324.226 536.526 377.734 519.518 423.132 487.35C468.027 448.501 494 392.787 496.245 330.459C498.927 256.277 468.169 181.441 411.866 125.14C361.882 75.1576 297.732 45.3106 231.252 41.1036C225.869 40.7625 220.525 40.6014 215.228 40.6014Z" fill="#E68133"/>
<path d="M268.386 537C232.152 537 197.007 529.903 163.918 515.908C131.957 502.387 103.255 483.038 78.6094 458.393C53.9634 433.748 34.6048 405.048 21.0926 373.088C7.09722 340 0 304.857 0 268.623C0 225.426 10.5084 182.493 30.3786 144.469C49.6141 107.667 77.6145 75.3282 111.357 50.9484C136.932 36.385 164.648 26.2085 193.766 20.7034C222.42 15.2741 251.7 14.4971 280.79 18.3914C310.174 22.3237 338.572 30.9083 365.198 43.9367C392.744 57.401 417.835 75.3471 439.762 97.2728C461.688 119.199 479.635 144.28 493.1 171.834C506.119 198.459 514.713 226.866 518.646 256.249C522.531 285.328 521.754 314.606 516.324 343.269C510.809 372.377 500.642 400.102 486.088 425.656C461.698 459.417 429.357 487.416 392.545 506.651C354.51 526.492 311.585 537 268.386 537ZM244.053 16.449C198.494 16.449 152.832 27.8667 111.613 51.3369C42.0242 101.622 0.473779 182.853 0.473779 268.614C0.473779 416.342 120.662 536.526 268.396 536.526C354.159 536.526 435.393 494.977 485.69 425.372C545.822 319.761 526.804 184.966 439.42 97.595C386.139 44.3157 315.224 16.449 244.053 16.449Z" fill="#E68133"/>
<path d="M268.386 537C232.152 537 197.007 529.903 163.918 515.908C131.957 502.387 103.255 483.038 78.6094 458.393C53.9634 433.748 34.6048 405.048 21.0926 373.088C7.09722 340 0 304.857 0 268.623C0 237.298 5.34424 206.617 15.8906 177.424C26.0768 149.216 40.8682 123.045 59.8573 99.6511C78.6758 76.4557 101.038 56.6809 126.319 40.8762C152.083 24.7683 180.14 13.2653 209.713 6.66106C253.197 -0.123217 297.988 3.05104 339.264 15.8331C382.529 29.2311 420.706 52.256 452.715 84.2728C484.647 116.204 507.645 154.276 521.062 197.417C533.835 238.492 537.085 283.092 530.462 326.394L530.538 326.413L530.49 326.65C517.547 385.396 484.553 438.77 437.611 476.946C414.196 495.991 387.997 510.829 359.74 521.053C330.499 531.637 299.76 537 268.386 537ZM255.604 3.55321C240.471 3.55321 225.168 4.73758 209.799 7.13482C88.5114 34.1866 0.464294 144.156 0.464294 268.623C0.464294 416.352 120.653 536.536 268.386 536.536C393.094 536.536 503.068 448.34 529.979 326.782L529.931 326.773L529.969 326.555C543.889 236.019 515.604 147.842 452.383 84.6234C399.718 31.96 329.788 3.55321 255.604 3.55321Z" fill="#E68133"/>
<path d="M268.386 537C232.152 537 197.007 529.903 163.918 515.908C131.957 502.387 103.255 483.038 78.6094 458.393C53.9634 433.748 34.6048 405.048 21.0926 373.088C7.09722 340 0 304.857 0 268.623C0 232.39 7.09722 197.246 21.0926 164.159C34.6143 132.199 53.9634 103.498 78.6094 78.853C103.255 54.2078 131.957 34.85 163.918 21.3383C197.007 7.34333 232.152 0.246366 268.386 0.246366C304.621 0.246366 339.766 7.34333 372.855 21.3383C404.816 34.8594 433.517 54.2078 458.163 78.853C482.809 103.498 502.168 132.199 515.68 164.159C529.675 197.246 536.773 232.39 536.773 268.623C536.773 304.857 529.675 340 515.68 373.088C502.158 405.048 482.809 433.748 458.163 458.393C433.517 483.038 404.816 502.396 372.855 515.908C339.766 529.903 304.611 537 268.386 537ZM268.386 0.701159C120.653 0.701159 0.464294 120.885 0.464294 268.614C0.464294 416.342 120.653 536.526 268.386 536.526C416.12 536.526 536.308 416.342 536.308 268.614C536.299 120.885 416.111 0.701159 268.386 0.701159Z" fill="#E68133"/>
<path d="M367.51 227.908C353.335 227.908 338.382 221.939 326.727 210.275C305.436 188.984 303.095 156.664 321.525 138.234C339.955 119.805 372.267 122.145 393.568 143.436C414.86 164.727 417.2 197.047 398.77 215.476C390.422 223.815 379.232 227.908 367.51 227.908ZM352.776 130.531C342.267 130.531 332.29 134.16 324.87 141.589C308.288 158.17 310.619 187.477 330.072 206.93C349.516 226.373 378.834 228.713 395.416 212.132C411.998 195.55 409.667 166.243 390.214 146.79C379.478 136.055 365.729 130.531 352.776 130.531Z" fill="#E68133"/>
<path d="M369.121 280.24C341.898 280.24 313.13 268.737 290.701 246.299C270.935 226.534 258.958 201.32 256.987 175.292C255.007 149.15 263.345 125.32 280.468 108.198C297.59 91.076 321.421 82.7378 347.564 84.7181C373.584 86.6889 398.808 98.6562 418.574 118.431C459.471 159.326 464.057 221.275 428.798 256.523C412.879 272.442 391.521 280.24 369.121 280.24ZM340.06 88.7072C318.019 88.7072 298.13 96.5717 283.481 111.22C267.249 127.451 259.356 150.088 261.232 174.97C263.127 199.975 274.659 224.232 293.705 243.286C332.934 282.514 392.185 287.1 425.776 253.51C459.367 219.92 454.78 160.672 415.552 121.444C396.506 102.399 372.239 90.8675 347.233 88.9725C344.826 88.7924 342.428 88.7072 340.06 88.7072Z" fill="#E68133"/>
<path d="M366.875 332.486C327.561 332.486 285.992 315.848 253.566 283.423C194.515 224.374 187.825 134.975 238.652 84.1402C289.488 33.3055 378.881 39.995 437.942 99.0542C496.994 158.104 503.684 247.503 452.857 298.337C429.935 321.258 399.168 332.486 366.875 332.486ZM324.643 53.2983C293.203 53.2983 263.288 64.2042 241.002 86.49C191.463 136.027 198.153 223.322 255.916 281.083C287.697 312.863 328.424 329.179 366.875 329.179C398.315 329.179 428.23 318.273 450.516 295.988C500.055 246.451 493.365 159.156 435.602 101.395C403.821 69.6241 363.095 53.2983 324.643 53.2983Z" fill="#E68133"/>
<path d="M361.029 381.54C311.263 381.54 258.636 360.467 217.578 319.41C142.835 244.67 134.326 131.554 198.608 67.2742C262.9 2.98471 376.01 11.4935 450.753 86.2437C525.497 160.984 534.006 274.1 469.723 338.38C440.757 367.355 401.85 381.54 361.029 381.54ZM307.312 26.4738C267.088 26.4738 228.807 40.4309 200.285 68.9514C136.922 132.312 145.431 243.921 219.255 317.743C259.849 358.335 311.879 379.18 361.029 379.18C401.253 379.18 439.534 365.223 468.056 336.703C531.419 273.342 522.91 161.733 449.086 87.9113C408.492 47.3193 356.462 26.4738 307.312 26.4738Z" fill="#E68133"/>
<path d="M350.776 426.755C345.489 426.755 340.154 426.556 334.772 426.149C279.16 421.942 225.244 396.33 182.954 354.042C140.665 311.754 115.052 257.84 110.845 202.23C106.629 146.582 124.348 95.8989 160.734 59.514C197.12 23.1291 247.805 5.41982 303.455 9.62683C359.068 13.8338 412.984 39.4455 455.273 81.7335C497.563 124.021 523.175 177.936 527.382 233.546C531.599 289.194 513.88 339.877 477.493 376.262C444.623 409.122 400.087 426.755 350.776 426.755ZM287.631 10.5554C240.32 10.5554 195.282 26.976 161.729 60.5279C87.2038 135.051 97.1815 266.264 183.959 353.038C226.012 395.089 279.605 420.549 334.876 424.737C390.11 428.916 440.396 411.349 476.479 375.267C512.562 339.185 530.13 288.9 525.951 233.669C521.763 178.4 496.302 124.808 454.25 82.7568C406.55 35.0489 345.404 10.5554 287.631 10.5554Z" fill="#E68133"/>
<path d="M340.78 467.044C334.829 467.044 328.822 466.817 322.757 466.362C260.152 461.624 199.442 432.791 151.827 385.169C104.212 337.556 75.3783 276.848 70.631 214.245C65.8838 151.613 85.8299 94.5629 126.774 53.6204C145.469 34.9257 167.614 20.5329 192.572 10.8397L192.61 10.8302C217.105 3.63849 242.603 0 268.377 0C340.126 0 407.592 27.9425 458.324 78.6729C509.066 129.413 537 196.867 537 268.614C537 294.386 533.352 319.884 526.169 344.378C516.466 369.383 502.073 391.517 483.378 410.221C446.404 447.203 396.288 467.044 340.78 467.044ZM192.894 11.7304C168.059 21.3667 146.038 35.6932 127.437 54.2836C43.3034 138.414 54.5415 286.55 152.491 384.496C199.944 431.948 260.436 460.686 322.823 465.414C385.182 470.143 441.96 450.302 482.705 409.548C501.306 390.949 515.633 368.919 525.269 344.075C532.423 319.704 536.052 294.301 536.052 268.614C536.052 121.018 415.968 0.93804 268.367 0.93804C242.698 0.93804 217.303 4.57655 192.894 11.7304Z" fill="#E68133"/>
<path d="M321.468 497.109C316.172 497.109 310.846 496.939 305.483 496.598C273.096 494.551 241.144 486.412 210.5 472.407C178.776 457.91 149.866 437.728 124.556 412.429C68.1578 356.032 37.3527 281.074 40.0343 206.759C42.2895 144.289 68.3189 88.4514 113.328 49.5176L113.347 49.4987C158.83 17.2639 212.433 0.227397 268.377 0.227397C304.611 0.227397 339.756 7.32436 372.845 21.3193C404.806 34.8405 433.508 54.1889 458.154 78.834C482.8 103.479 502.158 132.18 515.67 164.14C529.666 197.227 536.763 232.371 536.763 268.604C536.763 324.546 519.726 378.148 487.49 423.629C484.193 427.438 480.743 431.152 477.2 434.696C454.894 457 428.306 473.677 398.164 484.261C373.878 492.807 348.142 497.109 321.468 497.109ZM113.641 49.8871C68.7453 88.7356 42.7727 144.45 40.5176 206.778C37.836 280.96 68.5936 355.795 124.898 412.097C228.077 515.273 385.969 525.27 476.868 434.374C480.402 430.839 483.851 427.134 487.12 423.354C519.29 377.977 536.299 324.461 536.299 268.623C536.299 120.895 416.111 0.710643 268.377 0.710643C212.547 0.701168 159.038 17.7092 113.641 49.8871Z" fill="#E68133"/>
<path d="M292.407 521.281C280.269 521.281 268.112 520.475 255.983 518.845C226.599 514.913 198.201 506.319 171.574 493.3C144.029 479.836 118.937 461.89 97.011 439.964C75.0845 418.038 57.1377 392.957 43.6729 365.403C30.6535 338.768 22.0592 310.371 18.1363 280.988C14.2513 251.909 15.0282 222.63 20.4578 193.968C25.9725 164.86 36.1399 137.135 50.6944 111.58C75.0845 77.8202 107.434 49.8208 144.237 30.5861C182.263 10.707 225.197 0.208428 268.396 0.208428C304.63 0.208428 339.775 7.30539 372.864 21.3003C404.825 34.8215 433.527 54.17 458.173 78.8151C482.819 103.46 502.177 132.161 515.689 164.121C529.685 197.208 536.782 232.352 536.782 268.585C536.782 311.783 526.274 354.715 506.403 392.739C487.168 429.541 459.168 461.88 425.425 486.26C399.85 500.823 372.134 511 343.016 516.505C326.301 519.698 309.378 521.281 292.407 521.281ZM268.386 0.701159C182.623 0.701159 101.389 42.2501 51.0924 111.855C-9.03965 217.466 9.97779 352.261 97.3616 439.632C184.736 527.004 319.535 546.03 425.169 485.89C494.758 435.605 536.308 354.374 536.308 268.614C536.299 120.885 416.111 0.701159 268.386 0.701159Z" fill="#E68133"/>
<path d="M282.088 534.044C253.282 534.044 224.637 529.799 197.509 521.394C154.243 507.996 116.066 484.971 84.0578 452.955C52.1251 421.023 29.1279 382.951 15.7105 339.811C2.93741 298.736 -0.312636 254.136 6.31079 210.834L6.23491 210.815L6.28234 210.578C19.2355 151.831 52.22 98.4573 99.162 60.2815C122.576 41.2363 148.776 26.398 177.032 16.1742C206.264 5.5904 237.003 0.227397 268.386 0.227397C304.621 0.227397 339.766 7.32436 372.855 21.3193C404.816 34.8405 433.517 54.1889 458.163 78.834C482.809 103.479 502.168 132.18 515.68 164.14C529.675 197.227 536.773 232.371 536.773 268.604C536.773 299.929 531.428 330.61 520.882 359.803C510.696 388.011 495.904 414.172 476.915 437.576C458.097 460.772 435.735 480.546 410.454 496.351C384.69 512.459 356.632 523.962 327.059 530.566C312.164 532.888 297.097 534.044 282.088 534.044ZM6.79406 210.455L6.84136 210.464L6.80354 210.682C-7.11608 301.218 21.1684 389.395 84.3895 452.613C147.791 516.012 236.207 544.249 326.964 530.093C448.252 503.041 536.299 393.071 536.299 268.604C536.299 120.876 416.111 0.691674 268.377 0.691674C143.669 0.70115 33.6952 88.8967 6.79406 210.455Z" fill="#E68133"/>
<path d="M268.386 537C232.152 537 197.007 529.903 163.918 515.908C131.957 502.387 103.255 483.038 78.6094 458.393C53.9634 433.748 34.6048 405.048 21.0926 373.088C7.09722 340 0 304.857 0 268.623C0 232.39 7.09722 197.246 21.0926 164.159C34.6143 132.199 53.9634 103.498 78.6094 78.853C103.255 54.2078 131.957 34.85 163.918 21.3383C197.007 7.34333 232.152 0.246366 268.386 0.246366C304.621 0.246366 339.766 7.34333 372.855 21.3383C404.816 34.8594 433.517 54.2078 458.163 78.853C482.809 103.498 502.168 132.199 515.68 164.159C529.675 197.246 536.773 232.39 536.773 268.623C536.773 304.857 529.675 340 515.68 373.088C502.158 405.048 482.809 433.748 458.163 458.393C433.517 483.038 404.816 502.396 372.855 515.908C339.766 529.903 304.611 537 268.386 537ZM268.386 0.701159C120.653 0.701159 0.464294 120.885 0.464294 268.614C0.464294 416.342 120.653 536.526 268.386 536.526C416.12 536.526 536.308 416.342 536.308 268.614C536.299 120.885 416.111 0.701159 268.386 0.701159Z" fill="#E68133"/>
<path d="M268.386 537C232.152 537 197.007 529.903 163.918 515.908C131.957 502.387 103.255 483.038 78.6094 458.393C53.9634 433.748 34.6048 405.048 21.0926 373.088C7.09722 340 0 304.857 0 268.623C0 232.39 7.09722 197.246 21.0926 164.159C34.6143 132.199 53.9634 103.498 78.6094 78.853C103.255 54.2078 131.957 34.85 163.918 21.3383C197.007 7.34333 232.152 0.246366 268.386 0.246366C304.621 0.246366 339.766 7.34333 372.855 21.3383C404.816 34.8594 433.517 54.2078 458.163 78.853C482.809 103.498 502.168 132.199 515.68 164.159C529.675 197.246 536.773 232.39 536.773 268.623C536.773 304.857 529.675 340 515.68 373.088C502.158 405.048 482.809 433.748 458.163 458.393C433.517 483.038 404.816 502.396 372.855 515.908C339.766 529.903 304.611 537 268.386 537ZM268.386 0.701159C120.653 0.701159 0.464294 120.885 0.464294 268.614C0.464294 416.342 120.653 536.526 268.386 536.526C416.12 536.526 536.308 416.342 536.308 268.614C536.299 120.885 416.111 0.701159 268.386 0.701159Z" fill="#E68133"/>
<path d="M183.998 367.763C186.977 364.784 186.083 359.061 182.001 354.98C177.92 350.898 172.196 350.004 169.217 352.983C166.238 355.962 167.132 361.685 171.214 365.767C175.295 369.848 181.019 370.742 183.998 367.763Z" fill="#E68133"/>
<path d="M365.539 171.464C369.623 175.548 370.514 181.271 367.529 184.246C364.544 187.221 358.821 186.331 354.747 182.256C350.663 178.172 349.772 172.449 352.757 169.474C355.742 166.499 361.455 167.38 365.539 171.464Z" fill="#E68133"/>
</svg>
